/* XPM */
static char *ad3e849f5a1c457190c0a58e0af215d0fCMZGqpsm9TvzqXX[] = {
/* columns rows colors chars-per-pixel */
"32 32 6 1 ",
"  c None",
". c #253A5E",
"X c #3C5E8B",
"o c #4F8FBA",
"O c #73BED3",
"+ c #A4DDDB",
/* pixels */
"                                ",
"                                ",
"                                ",
"                                ",
"                                ",
"                                ",
"                                ",
"                                ",
"                                ",
"                                ",
"                                ",
"                                ",
"           +++++++oX            ",
"         ++++++++++oX           ",
"        +++OOO++++++++X         ",
"      ++++OOOOOOO+O+++++o       ",
"    +++OOOOOOOOOOOOOOO+++oX     ",
"   ++++OOOOOOOOOOOOOOOO+++++    ",
" ++++OOOOOOOOOOOOOOOOO+OO+++++  ",
"++++OOOOOOOOOOOOOOOOOOOOOO+++++ ",
"+++++OOOOOOOOOOOOOOOOOOOOO++++++",
"++++++OOOOOOOOOOOOOOOOOOO+++++XX",
"X++++++OOOOOOOOOOOOOOOO+++++XXX.",
"XXoo++++OOOOOOOOOOOOOO++++XXX...",
"XXXoooo++++OOO+OOOOOO++++XXX....",
"  XXXoooo++++++++OOO+++XXXX...  ",
"    XXooooo++++++++++XXXX...    ",
"      XXooooo++++++XXXXX..      ",
"        XXooooooXXXXX...        ",
"          XXXXXoXX....          ",
"            XXXX....            ",
"              XX..              "
};
