/* XPM */
static char *_3141e8d887743becd20fc47266fa635dpQ8U2KGVqSxQ3gl[] = {
/* columns rows colors chars-per-pixel */
"32 32 16 1 ",
"  c None",
". c #151D28",
"X c #241527",
"o c #19332D",
"O c #172038",
"+ c #602C2C",
"@ c #752438",
"# c #25562E",
"$ c #A53030",
"% c #BE772B",
"& c #468232",
"* c #DA863E",
"= c #DE9E41",
"- c #E8C170",
"; c #3C5E8B",
": c #C65197",
/* pixels */
"                                ",
"                                ",
"                                ",
"                                ",
"                                ",
"                                ",
"                                ",
"                                ",
"                                ",
"                                ",
"                                ",
"                                ",
"                                ",
"                                ",
"                   -- --        ",
"            $$::  ---*---       ",
"           $$$:O  --*$*--       ",
"          $$$:O   -*@$@*-&      ",
"     :$$ @$::O##  ;OO$OO;o&&&   ",
"    :$$$@@XXOoo#  #OOOOO##&&    ",
"    ::$@@Xo..ooo.ooo#&&###&     ",
"    OOOX@Xoo.....o%=#&#ooo      ",
"  &&#o#XXXooo.==.%===oo         ",
"   &&#&&&o...===%%%==           ",
"     #&&o  .&=%OO%+O=           ",
"          .&&OO++%++O           ",
"           o###o###o            ",
"            .&&#o#&.            ",
"             .o&o&o.            ",
"              oo#o              ",
"               oo               ",
"                                "
};
