/* XPM */
static char *_84940749987440989544807184c42e6dSjML95As0u5zEU7[] = {
/* columns rows colors chars-per-pixel */
"33 30 212 2 ",
"   c None",
".  c #35321F",
"X  c #2F291D",
"o  c #343429",
"O  c #2D2B30",
"+  c #2C3033",
"@  c #393733",
"#  c #372E25",
"$  c #473827",
"%  c #413A30",
"&  c #503F31",
"*  c #4C4223",
"=  c #4A412C",
"-  c #534526",
";  c #564A2C",
":  c #4D4432",
">  c #454135",
",  c #564737",
"<  c #63482B",
"1  c #65532D",
"2  c #68572B",
"3  c #765938",
"4  c #786135",
"5  c #3E3E48",
"6  c #574E53",
"7  c #585755",
"8  c #515449",
"9  c #625D59",
"0  c #7C6747",
"q  c #766752",
"w  c #585864",
"e  c #615F66",
"r  c #6B6D6C",
"t  c #6F7068",
"y  c #677778",
"u  c #777979",
"i  c #726E6B",
"p  c #A57E1F",
"a  c #826D3B",
"s  c #85693B",
"d  c #86723C",
"f  c #9D7D3A",
"g  c #987C38",
"h  c #AA7F2C",
"j  c #A67A2A",
"k  c #A67D33",
"l  c #A17D3D",
"z  c #A97B37",
"x  c #B2792C",
"c  c #957C42",
"v  c #9C7B44",
"b  c #997A48",
"n  c #857C57",
"m  c #967D55",
"M  c #AB7C43",
"N  c #807E6F",
"B  c #8B7F73",
"V  c #977F63",
"C  c #7C8877",
"Z  c #7A8462",
"A  c #9C8037",
"S  c #A8832D",
"D  c #B28127",
"F  c #A98134",
"G  c #A5823C",
"H  c #AB833B",
"J  c #A28130",
"K  c #CE963F",
"L  c #D29D37",
"P  c #C8A03E",
"I  c #D7A83A",
"U  c #F6C63E",
"Y  c #9D8345",
"T  c #99844A",
"R  c #998157",
"E  c #A4894B",
"W  c #A78946",
"Q  c #B28542",
"!  c #BC9746",
"~  c #A6875A",
"^  c #B69952",
"/  c #B5A357",
"(  c #898566",
")  c #9A8B65",
"_  c #96946B",
"`  c #918778",
"'  c #A39579",
"]  c #A4926C",
"[  c #B5A061",
"{  c #B2A878",
"}  c #C69C44",
"|  c #C89D51",
" . c #C9A44D",
".. c #DAA742",
"X. c #CEA755",
"o. c #E8B348",
"O. c #F5B946",
"+. c #E6BA59",
"@. c #FFBD54",
"#. c #F9BF57",
"$. c #CAB16F",
"%. c #CBAC7B",
"&. c #D2AF77",
"*. c #D4B677",
"=. c #D0AA65",
"-. c #E6B86A",
";. c #F2BF66",
":. c #E5BD75",
">. c #F7C547",
",. c #FCCC47",
"<. c #F5C44C",
"1. c #FEC64B",
"2. c #F7CC4C",
"3. c #FECB4C",
"4. c #F8C545",
"5. c #F9D149",
"6. c #EAC554",
"7. c #FDC554",
"8. c #FECC54",
"9. c #F5C45B",
"0. c #F9C35B",
"q. c #F4CB5E",
"w. c #FDCC5A",
"e. c #F4C854",
"r. c #F9D25C",
"t. c #DECE73",
"y. c #EAC969",
"u. c #F5C562",
"i. c #F3C962",
"p. c #F6C767",
"a. c #E9D067",
"s. c #EBC57F",
"d. c #E7CA76",
"f. c #F4CC74",
"g. c #F5C975",
"h. c #F5D177",
"j. c #EED26C",
"k. c #767B84",
"l. c #667988",
"z. c #847E83",
"x. c #7D8685",
"c. c #718190",
"v. c #838384",
"b. c #838B8D",
"n. c #8A8885",
"m. c #948D87",
"M. c #97968B",
"N. c #8B8E91",
"B. c #8C8B99",
"V. c #8F9094",
"C. c #989397",
"Z. c #958E95",
"A. c #A49F99",
"S. c #B0A285",
"D. c #B9B290",
"F. c #9E9DAB",
"G. c #B6BCBC",
"H. c #AEB8B3",
"J. c #C0AF83",
"K. c #D5B683",
"L. c #C0AE9A",
"P. c #CBBB95",
"I. c #E2BD89",
"U. c #CFBFB2",
"Y. c #B7C6A9",
"T. c #B8C2BB",
"R. c #D8CA89",
"E. c #CCD18E",
"W. c #C8CB9C",
"Q. c #D2C59B",
"!. c #E2CC8A",
"~. c #E5C785",
"^. c #F9D489",
"/. c #EDD090",
"(. c #C6C7A8",
"). c #D8C7A3",
"_. c #DED0A1",
"`. c #D5CCB7",
"'. c #DCD0B3",
"]. c #C4CEB5",
"[. c #E7D9AA",
"{. c #F9DAA8",
"}. c #E1CDB2",
"|. c #E6D3B5",
" X c #FFECBF",
".X c #9DBBCD",
"XX c #9EB9C0",
"oX c #9ABCD3",
"OX c #94BEDF",
"+X c #9ABBDE",
"@X c #A9BBC6",
"#X c #A0BBD8",
"$X c #8CBDE3",
"%X c #8EBFEA",
"&X c #93BDE3",
"*X c #96BCE8",
"=X c #9AC2D9",
"-X c #9FC6C3",
";X c #AAC3C8",
":X c #B7C2C6",
">X c #94C1E6",
",X c #92C1EC",
"<X c #99C5E8",
"1X c #8DC4EB",
"2X c #B0C8E5",
"3X c #CAD6DF",
"4X c #E9D2CB",
"5X c #F9F2D9",
"6X c #F2EECB",
"7X c #FEEEE1",
"8X c #FEFEE2",
"9X c #FFFDF5",
/* pixels */
"                                                                  ",
"                                      {.                          ",
"                                    f.9.u.h.                      ",
"                                {.f.#.1.3.7.p.^.                  ",
"                      _._.'.  4X!.d.9.7.7.7.@.0.u.h.              ",
"                      ~.[.|.U.L.K.:.y.p.#.@.@.8.1.<.i.            ",
"                    s.{.5X9X5X[.*.&.K.I.g.p.@.O.1.3.8.+.=.        ",
"                  i.^. X    8X6X~.s.K.%.&.:.g.u.e.<.<.I j ~       ",
"              f.w.7.^.{.7X9X6XP.=.p.y.d.P.S.D.R.y.+.K x k E n     ",
"            /.q.4.4.g.~.).}.).%.-.9.6.t.D.x.C _ / H z M v a ;     ",
"          `.R.a.2.,.w.;.-.:.-.+.O.w.y.{ b.l.y Z T l v 3 ; = > M.  ",
"          G.Y.E.t.a.i.9.0.0.0.7.1.e.$.( y c.C ( T c < $ # @ u     ",
"        2XoX=X;XY.W.R.y.e.>.1.8.7. .) u k.v.m Y c 2 $ 6 z.6       ",
"        <X>X1X$XoX;X(.R.d.i.i.9...H n N B V l G a * 7 Z.C.Z.u     ",
"        +X<X,X%X&X+X.X@XT.).~.X.S J Y T v M H v 1 . v.v.u n.b.    ",
"      3X.X=X$X,X,X*X%X&X#XG.J.G S S F F k H l s = @ N.u M.t       ",
"      `.T..X&X,XOXOX>X>XOX@X{ A h D h j Q g a - % O B.F.v.v.      ",
"    {.!.Q.].;X.X;XoX&X,X>XXX_ G h h F G Y d * : i e 5 w           ",
"    h.q.q.a.R.W.H.@X+X*X*XH.R Q F k G v 4 - = m.                  ",
"  !.i.1.,.U r.d.R.(.:X@X@XA.b z G f b s ; & M.                    ",
"  &.+.1.3.,.8.e.r.y.!.Q.P.] E g c b 0 $ , C.                      ",
"    X.o.O.3.1.3.3.2.q.f.*.E E d 2 - $ , m.                        ",
"    [ ! L o.O.7.3.3.2.6.} f s < $ X # `                           ",
"    ' b ^ } ....o.w.<.I p f 3 $ 9 n.r u                           ",
"        ` R ^  .P o...D k s * 8 V.V.N.u                           ",
"            ) c ^ | | Q v 1 o x.x.u                               ",
"                ) m ~ ~ 0 : o b.b.N.r                             ",
"                    ' q : o + k.                                  ",
"                        M.  z.5 7                                 ",
"                                                                  "
};
