/* XPM */
static char *_110b4b31d834fe8cafdb0586d7e3b4eIkNtz0hqroLprH19[] = {
/* columns rows colors chars-per-pixel */
"32 25 196 2 ",
"   c None",
".  c #000000",
"X  c #0D0C0C",
"o  c #141414",
"O  c #1A1B1A",
"+  c #362D1C",
"@  c #2D2E2D",
"#  c #3B3626",
"$  c #3A393A",
"%  c #373635",
"&  c #423419",
"*  c #443A2A",
"=  c #413F3C",
"-  c #463D35",
";  c #5C461F",
":  c #48402D",
">  c #594726",
",  c #5C502A",
"<  c #444036",
"1  c #44423D",
"2  c #4A463B",
"3  c #5B4D39",
"4  c #554C3D",
"5  c #5C5036",
"6  c #775F2F",
"7  c #604F39",
"8  c #695A3B",
"9  c #735D3A",
"0  c #76623C",
"q  c #403E40",
"w  c #3F4344",
"e  c #424242",
"r  c #4B4C4C",
"t  c #474748",
"y  c #53524D",
"u  c #57534B",
"i  c #524F54",
"p  c #4D5052",
"a  c #545454",
"s  c #5B5551",
"d  c #5A5A58",
"f  c #565658",
"g  c #665D54",
"h  c #645F5A",
"j  c #685A42",
"k  c #6F6345",
"l  c #7B6647",
"z  c #646158",
"x  c #645D64",
"c  c #666665",
"v  c #6B6A66",
"b  c #676566",
"n  c #72696E",
"m  c #67706D",
"M  c #75776C",
"N  c #6F7277",
"B  c #747A7D",
"V  c #767778",
"C  c #9E7E2D",
"Z  c #896B36",
"A  c #8B753B",
"S  c #987B3A",
"D  c #A37D24",
"F  c #AA7D2B",
"G  c #A47E2B",
"H  c #A27C3B",
"J  c #A97C35",
"K  c #B77E24",
"L  c #967A43",
"P  c #9E7E45",
"I  c #987949",
"U  c #9A7D51",
"Y  c #837653",
"T  c #857D69",
"R  c #977B63",
"E  c #7D806B",
"W  c #7D827B",
"Q  c #B1811F",
"!  c #A6852B",
"~  c #A88525",
"^  c #B5822F",
"/  c #A58233",
"(  c #A5823D",
")  c #AC853C",
"_  c #AB8233",
"`  c #B8863A",
"'  c #CC9738",
"]  c #D59E39",
"[  c #D6A33A",
"{  c #E8A937",
"}  c #EAB13E",
"|  c #9B854B",
" . c #9B8147",
".. c #9C8457",
"X. c #A48142",
"o. c #AB8146",
"O. c #AA8449",
"+. c #A4884C",
"@. c #A78A58",
"#. c #B79A57",
"$. c #B58145",
"%. c #958365",
"&. c #8C8F7A",
"*. c #A99C6F",
"=. c #B69C6A",
"-. c #B39B77",
";. c #B8A57A",
":. c #C49D45",
">. c #CA9F5A",
",. c #D49B54",
"<. c #DCA341",
"1. c #DEAA43",
"2. c #D8AB4E",
"3. c #DDB14E",
"4. c #C7A258",
"5. c #D6A953",
"6. c #D9B558",
"7. c #E4AA43",
"8. c #E1A24A",
"9. c #EBA846",
"0. c #E9B54B",
"q. c #E9B746",
"w. c #F6B94B",
"e. c #E6B457",
"r. c #E3BA54",
"t. c #EDBB56",
"y. c #E4B95C",
"u. c #EABA5B",
"i. c #E1B55B",
"p. c #DEBA69",
"a. c #D6B867",
"s. c #D3B771",
"d. c #DBB874",
"f. c #C8AE64",
"g. c #E2B563",
"h. c #FCC24D",
"j. c #FAC64B",
"k. c #FBC452",
"l. c #F6C659",
"z. c #EBC55A",
"x. c #E5C46A",
"c. c #EACC6C",
"v. c #F5C965",
"b. c #EACB78",
"n. c #F5C873",
"m. c #6A7C84",
"M. c #6A7E89",
"N. c #767D85",
"B. c #698092",
"V. c #8B8889",
"C. c #93918F",
"Z. c #8F8D90",
"A. c #988C95",
"S. c #8A9390",
"D. c #939493",
"F. c #999B99",
"G. c #A1958C",
"H. c #A09C99",
"J. c #9DA298",
"K. c #ACB0A2",
"L. c #ADBDBC",
"P. c #B4BAB0",
"I. c #D7BE84",
"U. c #D8BD89",
"Y. c #E1B985",
"T. c #BAC9BA",
"R. c #D5C78C",
"E. c #CEC59E",
"W. c #D0CA96",
"Q. c #E6CA83",
"!. c #CBC5AC",
"~. c #C6C9AE",
"^. c #D7CAA0",
"/. c #CDD3AD",
"(. c #C4C8BA",
"). c #F3D6A9",
"_. c #ADBEC5",
"`. c #A8C6CB",
"'. c #BCC6C7",
"]. c #B5C9CD",
"[. c #ACC8D3",
"{. c #A9C7D9",
"}. c #99C8E9",
"|. c #9BC6F4",
" X c #9CCAF3",
".X c #97C9F6",
"XX c #9AD2F7",
"oX c #A5C7E6",
"OX c #ACCAE1",
"+X c #A2CDEE",
"@X c #A5C9E7",
"#X c #A2C6F6",
"$X c #A3CAF4",
"%X c #A5C6F6",
"&X c #A0D0F6",
"*X c #C4CBC3",
/* pixels */
"                                                                ",
"                                                                ",
"                                                                ",
"                    g.e.                0.q.u.                  ",
"                !.U.g.t.t.            i.q.q.u.6.a.              ",
"              [.'.!.U.d.6.6.s.      5.e.u.y.a.f.a.6.3.x.).      ",
"              }.@X{.].(.E.I.p.i.r.r.q.3.s.;.&.E *.s.u.0.g.U.    ",
"            }.XX.X X$X{.'.!.R.p.y.q.q.5...M M.m.T =.5.7.] G =.  ",
"          oX&X.X.X$X%X%X@XOX].~.Y.,.` X.T N.B.M.T ..` K Q D +.  ",
"        *X_.OX+X$X#X|.#X|..X}.].-.$.J +.%.V B W %.I o.J / ( |   ",
"      Q.Q.^.T.[.oX|. XXX.X XoXL.@./ D C U R %... .P I l 0 Y k   ",
"  ).n.l.v.b.R.~.T.[.{.}.}.+X`.J. ./ ~ ! H O.o.H H Z > * # 2 *   ",
"  d.u.k.l.l.z.c.Q.W.T.`.{.[.K.%.H G ~ ~ ~ D G ( A > # y y # 2   ",
"  4.1.} w.h.j.j.l.x.R./.*XP.-.P ) F D ~ ~ ! C A , # M C.F.d c   ",
"  4.1.{ { 9.w.k.h.h.v.b.U.;.O.J F F _ ) ( L l 3 < a C.V.A.x @   ",
"  #.5.<.8.8.<.q.w.h.k.t.>.O.H H ( H P L 0 , - = $ N V.n A.b X   ",
"  l U #.4.2.[ { { } w.' J O.L 6 9 l k 3 : < 1 $ % B F.D.N t .   ",
"  G.7 0 | #.5.' 7.] ' ^ ( Z ; & + < 2 1 1 a e a w w B b f X     ",
"    z 4 3 9 U 4.:.6.:.C L > * s g % - u e X . . @ a p t X .     ",
"    O a s g 7 9 | #.#.A 9 * c Z.H.s y X . . . . . . . . . .     ",
"      . o @ 1 g j 8 l 5 # 2 D.B D.v % . . . . . . . . . .       ",
"        . . . . X h s % = d S.m Z.v O . . . . . . .             ",
"          . . . . . q i % d J.F.V r . . . . .                   ",
"                . . . e i $ c c d o . . .                       ",
"                      . O a f a o . .                           "
};
