/* XPM */
static char *_24c3303a4b643f2e288bd614a0a43fccohAv8KvIBVQLxgw[] = {
/* columns rows colors chars-per-pixel */
"33 30 202 2 ",
"   c None",
".  c #3C3226",
"X  c #373A36",
"o  c #493F36",
"O  c #503E3E",
"+  c #48372D",
"@  c #554425",
"#  c #534B3B",
"$  c #56473A",
"%  c #534F3A",
"&  c #65552C",
"*  c #635A2F",
"=  c #71552E",
"-  c #675938",
";  c #735F3E",
":  c #694C3A",
">  c #776539",
",  c #48404D",
"<  c #575857",
"1  c #685E44",
"2  c #635C49",
"3  c #655D56",
"4  c #786947",
"5  c #625F62",
"6  c #636164",
"7  c #6F726B",
"8  c #706D74",
"9  c #77777B",
"0  c #76716B",
"q  c #85673C",
"w  c #8B763E",
"e  c #987839",
"r  c #A67C2C",
"t  c #A27934",
"y  c #8A7647",
"u  c #987F4B",
"i  c #88785A",
"p  c #856743",
"a  c #847B65",
"s  c #7C807F",
"d  c #AD8331",
"f  c #BF9139",
"g  c #C69238",
"h  c #D49D36",
"j  c #DAA533",
"k  c #D4A23D",
"l  c #DBA53A",
"z  c #DEA938",
"x  c #E4A938",
"c  c #F2BC3E",
"v  c #EDC13E",
"b  c #8F8144",
"n  c #96844C",
"m  c #9D874B",
"M  c #A2864F",
"N  c #AA854A",
"B  c #AA924E",
"V  c #B79447",
"C  c #A78A54",
"Z  c #BF9B58",
"A  c #B08656",
"S  c #BFA44D",
"D  c #BFA25E",
"F  c #80807B",
"G  c #BFA86B",
"H  c #B8A578",
"J  c #BEB27E",
"K  c #D49E43",
"L  c #C49B57",
"P  c #C4994B",
"I  c #CBA74C",
"U  c #D4A543",
"Y  c #D9AB49",
"T  c #DEB44E",
"R  c #CFAF5C",
"E  c #C9A656",
"W  c #D3A650",
"Q  c #D4A952",
"!  c #D2A35B",
"~  c #D1AA5A",
"^  c #DCAD58",
"/  c #DEB858",
"(  c #E5AA46",
")  c #EEB44B",
"_  c #EAB84A",
"`  c #F6BC46",
"'  c #FBBE44",
"]  c #F2BD4B",
"[  c #FDBB4B",
"{  c #E2A950",
"}  c #ECBC55",
"|  c #E9B65D",
" . c #FCB553",
".. c #F2BD51",
"X. c #FABD53",
"o. c #F4BD5D",
"O. c #FBBE5B",
"+. c #F6B555",
"@. c #CDA561",
"#. c #C9A96A",
"$. c #D8AF6F",
"%. c #DEB86B",
"&. c #C3A577",
"*. c #CCB479",
"=. c #CDBA7F",
"-. c #D3B677",
";. c #CDAF72",
":. c #E5BD6B",
">. c #EBBC6B",
",. c #E8BA62",
"<. c #F2BD66",
"1. c #E7BC75",
"2. c #EFC347",
"3. c #F9C14A",
"4. c #F7C348",
"5. c #E9C258",
"6. c #F2C35C",
"7. c #F8C255",
"8. c #D8C27A",
"9. c #ECC36D",
"0. c #E9C466",
"q. c #F3C465",
"w. c #E4C374",
"e. c #EBC372",
"r. c #E2C97D",
"t. c #F1C070",
"y. c #F4D179",
"u. c #817983",
"i. c #6EA1BE",
"p. c #7DA4BE",
"a. c #77A4BA",
"s. c #7E9FC2",
"d. c #7CA9C4",
"f. c #79A7C9",
"g. c #78A8C4",
"h. c #89898C",
"j. c #958A96",
"k. c #9B9C9D",
"l. c #919196",
"z. c #878990",
"x. c #A49D98",
"c. c #B5A58B",
"v. c #BCB18B",
"b. c #A4A39C",
"n. c #A3AA9C",
"m. c #AAA294",
"M. c #BEAB9C",
"N. c #B1AA97",
"B. c #B8B599",
"V. c #ACA68C",
"C. c #8D9DA6",
"Z. c #8C9EAF",
"A. c #979BA9",
"S. c #879DB5",
"D. c #909FB6",
"F. c #A79EAF",
"G. c #9AA3A2",
"H. c #93A1AD",
"J. c #97A5A8",
"K. c #81A4B4",
"L. c #86A3B8",
"P. c #99A1B3",
"I. c #91A0B5",
"U. c #83A5AE",
"Y. c #A5A5AB",
"T. c #ABADA9",
"R. c #A4A6A5",
"E. c #B3AEB3",
"W. c #B4B5B3",
"Q. c #CBBB84",
"!. c #CBB388",
"~. c #D7B886",
"^. c #C5B697",
"/. c #D6BA95",
"(. c #D4BD9D",
"). c #C1A989",
"_. c #E3BC82",
"`. c #E2BC8A",
"'. c #C1BEBD",
"]. c #CDB7A2",
"[. c #BFC2B9",
"{. c #DFC080",
"}. c #E0C282",
"|. c #F5D384",
" X c #F8D695",
".X c #F1CF8E",
"XX c #D7C6A9",
"oX c #F5DBAC",
"OX c #E9D1B0",
"+X c #83A9C2",
"@X c #86A4C2",
"#X c #80B0C7",
"$X c #97B3C1",
"%X c #BBBCC2",
"&X c #C2BCCA",
"*X c #AEC8CF",
"=X c #C4C6C9",
"-X c #CECAD4",
";X c #FFE8C0",
":X c #F9EDD8",
">X c #FFFDF4",
",X c #F0EAE9",
/* pixels */
"                                                                  ",
"                        |.r.oX                                    ",
"                    y.6.5.} q. X                                  ",
"                |.q.2.v 4.3.O.>.OX                                ",
"            |.6.] ] 4.' 3.7.<.1./.].  /.8.r.                      ",
"        .X0.7.` 3.' ` X.6.,.%.-.).^.OX;X X%.w.                    ",
"      %.U ] 7.] [ X.<.:.-.*.*.~.XX:X>X    oXe.:.                  ",
"    ~.I l x ) 7.<.1.~.!.J Q._.`.OX:X        9.o.t.                ",
"    b E Y h ( | `.M.Y.T.^.r.5.0.{.OX,X,XXX*.| X.O.e.              ",
"  a * n B ! K ^ &.m.D.I.B.8.6.] >._.(.^.G R } X.o.9..X            ",
"    3 $ $ ; B E E H G.Z.G.v.>.X. .+.| / T _ 3.] q.}.^.W.          ",
"    j., < # & B R #.V.G.C.x.$.O.[ [ ' ] ..6.q.w.=.B.G.C.          ",
"    u.F.%Xs o 4 L ! #.c.J.k.#.{ [ ' ' ..<._.!.B.J.U.K.K.*X        ",
"      &XE.=X8 o A ! ~ G m.c.#.k x ] q.w.~.M.R.Z.p.i.g.d.$X        ",
"      E.k.R.x.+ q L I I @.@.Q k l / Q.N.P.S.S.L.+Xa.f.d.@X        ",
"        W.'.E.. @ m S I ^ K l z j ~ V.H.+Xf.g.+Xp.+Xp.L.P.-X      ",
"          '.u.X # - n D Q U l x j I M.P.a.g.g.d.s.@XA.b.^./.      ",
"          5 6     2 - u E Q l x z W c.A.+X#Xa.K.H.k.^.~.:.:.      ",
"                    2 & M L ^ k j Y &.x.D.S.C.n.v.-.9.5.2._ /     ",
"                      1 & u Z ~ U U @.H x.b.B.Q.e.} ] 3.c 4.5.    ",
"                        1 - y M L Q Q E #.8.0.5.) O. .+...Y V     ",
"                          2 $ @ = N W Y / 5.2.c [  .+.{ g r e     ",
"                          F 3 3 O : N W { ) ' ' X.( f r e y       ",
"                          9 E.=Xj.$ q L K ( ` x g d e w > a       ",
"                          z.%XY.%X0 @ C W Y g r t w 4 a           ",
"                          l.%Xk.T.b.. 4 #.P t e > i               ",
"                            h.%X[.n.X # y M p i                   ",
"                            Y.l.T.7 X < - i                       ",
"                                8 9                               ",
"                                                                  "
};
