/* XPM */
static char *result[] = {
/* columns rows colors chars-per-pixel */
"32 30 138 2 ",
"   c #353535",
".  c #3B3B3B",
"X  c #423F3D",
"o  c #41403E",
"O  c #63523B",
"+  c #444443",
"@  c #484745",
"#  c #4F4B46",
"$  c #4B4B4B",
"%  c #574E45",
"&  c #554F49",
"*  c #595046",
"=  c #545454",
"-  c #575858",
";  c #5B5B5C",
":  c #695A47",
">  c #655849",
",  c #7B684F",
"<  c #6B6052",
"1  c #756652",
"2  c #7B6951",
"3  c #6A6D6E",
"4  c gray39",
"5  c #6F7073",
"6  c #727374",
"7  c #8B6A34",
"8  c #A47B2D",
"9  c #AA7F2B",
"0  c #856E4D",
"q  c #8C7149",
"w  c #9B7A46",
"e  c #997949",
"r  c #A17E46",
"t  c #AC802B",
"y  c #B1852D",
"u  c #BE8F31",
"i  c #C29132",
"p  c #D39E37",
"a  c #D19E3D",
"s  c #D5A13B",
"d  c #DCA53B",
"f  c #DFA83B",
"g  c #E2AA3C",
"h  c #EBB13F",
"j  c #A88347",
"k  c #B18841",
"l  c #B88E44",
"z  c #C49542",
"x  c #CA9941",
"c  c #D8A54D",
"v  c #DBA954",
"b  c #DAAA5B",
"n  c #E5AE47",
"m  c #EEB340",
"M  c #E7B048",
"N  c #F1B640",
"B  c #F7BA42",
"V  c #FBBD44",
"C  c #F0B649",
"Z  c #EFB753",
"A  c #E8B358",
"S  c #F1B954",
"D  c #F8BD50",
"F  c #F4BC5B",
"G  c #D2A663",
"H  c #D1A769",
"J  c #D3A969",
"K  c #DFB26F",
"L  c #D5B07D",
"P  c #EDB965",
"I  c #EAB96C",
"U  c #F3BE66",
"Y  c #E7BA77",
"T  c #E4B97B",
"R  c #FEC045",
"E  c #FCC050",
"W  c #FEC562",
"Q  c #749DBD",
"!  c #789DBB",
"~  c #77A0C1",
"^  c #7AA4C6",
"/  c #8B8C8E",
"(  c #828385",
")  c #8D8E90",
"_  c #909193",
"`  c #9A9B9D",
"'  c #B7A592",
"]  c #BDAB97",
"[  c #9B9DA3",
"{  c #9FA2A7",
"}  c #9DA4AD",
"|  c #85A4BE",
" . c #8CA5BC",
".. c #9AA5B2",
"X. c #90A8BE",
"o. c #99AABB",
"O. c #A4A4A6",
"+. c #A4A6AA",
"@. c #A6A8AD",
"#. c #A9AAAD",
"$. c #ACAEB0",
"%. c #AEB0B2",
"&. c #A8B0B9",
"*. c #B0B2B4",
"=. c #B3B5B9",
"-. c #B7B9BC",
";. c #B9BBBD",
":. c #C0A584",
">. c #CCAF8B",
",. c #DEB780",
"<. c #D0B28C",
"1. c #DEBA88",
"2. c #D0B493",
"3. c #D2B99C",
"4. c #C8B5A0",
"5. c #C5B3A2",
"6. c #FACC8B",
"7. c #FED090",
"8. c #D6CABE",
"9. c #F4D7B5",
"0. c #FEDFB9",
"q. c #86A5C0",
"w. c #95AFC7",
"e. c #89B0CE",
"r. c #9EB2C6",
"t. c #85B0D2",
"y. c #A2B2C2",
"u. c #C8C7C5",
"i. c #C4C6C9",
"p. c #C6C8CB",
"a. c #C9CBCD",
"s. c #FEE8CF",
"d. c #E9E0D6",
"f. c #FDE9D3",
"g. c gray90",
"h. c gray92",
"j. c #FEFDFC",
"k. c None",
/* pixels */
"k.k.k.k.k.k.k.k.k.k.k.k.B k.k.k.k.k.k.k.k.k.k.k.k.k.k.k.k.k.k.k.",
"k.k.k.k.k.k.k.k.k.k.B V B B k.k.k.k.k.k.k.k.k.k.k.k.k.k.k.k.k.k.",
"k.k.k.k.k.k.k.k.B B B V B P 5.e.t.r.1.D k.k.k.k.k.k.k.k.k.k.k.k.",
"k.k.k.k.k.k.B B B V B P 4.r.t.y.3.W R V V k.k.k.k.k.k.k.k.k.k.k.",
"k.k.k.k.B B V V B P 4.r.t.y.3.U V V R R V V k.k.k.k.k.k.k.k.k.k.",
"k.k.g h B V B P 4.r.t.r.3.U R R R E 7.0.W R V k.k.k.k.k.k.k.k.k.",
"k.k.s g m Z 2.&.r.r.3.U R R V V 6.f.j.j.f.W V V k.k.k.k.k.k.k.k.",
"k.a d d d v H G G b C R R R V U d.j.j.j.j.9.V R R k.k.k.k.k.k.k.",
"k.q x d s f f d d d g B R R R U 8.g.j.h.u.L V V F <.k.k.k.k.k.k.",
"k.= 2 e l s d d d d d g B R V V I u.u.' J C F >.} ! k.k.k.k.k.k.",
"k.= $ + & e s s d d d d b I V V V P I n Z >.} Q ~ Q k.k.k.k.k.k.",
"k.o ; 6 $ @ r d d d d d ' o.Y V V V F >...~ Q Q Q Q k.k.k.k.k.k.",
"k.+ %.u.#.& * z d d d c ..^ o.,.F <...! Q Q Q Q Q Q Q k.k.k.k.k.",
"k.= ;.#.-._ . w d d d G  .^ q.q...! ~ ! Q Q Q Q Q Q ! k.k.k.k.k.",
"k.k.+.$.[ *.. : i f d d :.! ^ ^ ~ Q Q Q Q Q Q Q ! { L k.k.k.k.k.",
"k.k.6 y.i.*.  + 2 x d d c L q.^ ~ Q ~ Q Q Q ! { L Z V B k.k.k.k.",
"k.k.k.5 ` 6   $ = 2 x d d d ' ! ^ Q Q Q ! O.L Z B V V V V k.k.k.",
"k.k.k.k.. . k.k.= - 2 z d d d L | Q Q O.L S B B B V V R V V k.k.",
"k.k.k.k.k.k.k.k.k.- = 1 i d d c :.O.L S V V V V V V V V V B g k.",
"k.k.k.k.k.k.k.k.k.k.= - 2 z d d d n V B V V V V V V R B g u 9 k.",
"k.k.k.k.k.k.k.k.k.k.k.= = < 0 j a g m B V V V V V B d u 9 9 9 k.",
"k.k.k.k.k.k.k.k.k.k.k.k.= + o + q a d m V V V B d i t 9 9 9 9 k.",
"k.k.k.k.k.k.k.k.k.k.k.k.. 6 / ; + w d d N B g u t t 9 9 8 7 k.k.",
"k.k.k.k.k.k.k.k.k.k.k.k.= -.i.$.= % z d d i 9 9 9 9 8 7 O o k.k.",
"k.k.k.k.k.k.k.k.k.k.k.k.; -.[ *._ . w f s y 9 9 8 7 O o . k.k.k.",
"k.k.k.k.k.k.k.k.k.k.k.k.k.+.$.@.%.  > l p t 8 7 O + . k.k.k.k.k.",
"k.k.k.k.k.k.k.k.k.k.k.k.k.3 -.a.O.  @ 1 k 7 O o . k.k.k.k.k.k.k.",
"k.k.k.k.k.k.k.k.k.k.k.k.k.k.4 ( ;   $ = & o . k.k.k.k.k.k.k.k.k.",
"k.k.k.k.k.k.k.k.k.k.k.k.k.k.k.k.k.k.k.= + k.k.k.k.k.k.k.k.k.k.k.",
"k.k.k.k.k.k.k.k.k.k.k.k.k.k.k.k.k.k.k.k.k.k.k.k.k.k.k.k.k.k.k.k."
};
