/* XPM */
static char *_3bd6073320045ebd1c0459ce8729bd2QGe7lIEUKkJkifhi[] = {
/* columns rows colors chars-per-pixel */
"32 32 8 1 ",
"  c None",
". c #241527",
"X c #341C27",
"o c #602C2C",
"O c #25562E",
"+ c #468232",
"@ c #75A743",
"# c #A8CA58",
/* pixels */
"                                ",
"                                ",
"                                ",
"                                ",
"               @@               ",
"           @  @@  #             ",
"        ####@@@####@            ",
"         #############          ",
"       @@################       ",
"     @##################@@      ",
"    @#####################@     ",
"  # #########################   ",
"  ###########################   ",
"  ############################  ",
" #############################@ ",
"+@@@@##########################@",
".@@@###@###################+#+++",
"o.@@@@##@#################+O+OX.",
"Xo.++@@@@@############++++OOOX..",
"oXXXX.++@@#######+###+OO+OOX....",
"XXoXoX.++@@@@####++#+OOOO..XXX..",
"Xoo..oX..++@#@####++OOO.X..XXXX.",
"oooooooXXX.+++@###+OO.X..XXXXX..",
".ooo.oXXooo.++@@++OOX..XXXX....X",
"X...XX..ooooXX+++OOXXXXXXXX...XX",
"  X....XooooooXX...XX.XXXX....  ",
"    X..XXoo.XooooXXX.X......    ",
"      X.XXX..XooXXXXX.....      ",
"        ......XXXXX..X..        ",
"          X......XXXXX          ",
"            .X.XXXXX            ",
"              XXXX              "
};
