/* XPM */
static char *_ff58ceaeda44bf5b0d168b47dad087cQqoIJhbceZptTkHI[] = {
/* columns rows colors chars-per-pixel */
"50 52 85 1 ",
"  c none",
". c none",
"X c none",
"o c none",
"O c none",
"+ c none",
"@ c none",
"# c none",
"$ c none",
"% c none",
"& c none",
"* c none",
"= c none",
"- c none",
"; c none",
": c none",
"> c none",
", c none",
"< c none",
"1 c none",
"2 c none",
"3 c none",
"4 c none",
"5 c none",
"6 c none",
"7 c none",
"8 c none",
"9 c none",
"0 c none",
"q c none",
"w c none",
"e c none",
"r c none",
"t c none",
"y c none",
"u c None",
"i c none",
"p c none",
"a c none",
"s c none",
"d c none",
"f c none",
"g c none",
"h c none",
"j c none",
"k c none",
"l c none",
"z c none",
"x c none",
"c c none",
"v c none",
"b c none",
"n c none",
"m c none",
"M c none",
"N c none",
"B c none",
"V c none",
"C c none",
"Z c none",
"A c none",
"S c none",
"D c none",
"F c none",
"G c none",
"H c none",
"J c none",
"K c none",
"L c none",
"P c none",
"I c none",
"U c none",
"Y c none",
"T c none",
"R c none",
"E c none",
"W c none",
"Q c none",
"! c #394A50",
"~ c #202E37",
"^ c #10141F",
"/ c #819796",
"( c #577277",
") c none",
"_ c white",
/* pixels */
"                                                  ",
"                                                  ",
"                                                  ",
"                                                  ",
"                                                  ",
"                                                  ",
"                                                  ",
"                                                  ",
"                                                  ",
"                                                  ",
"                                                  ",
"                                                  ",
"                                                  ",
"                               !                  ",
"                           !   !!                 ",
"                           !!!!!!!!               ",
"                           ~!!!!!!^               ",
"                         !!!!!~^~!!~              ",
"                 !!!!~  !!!!/(~~!!!!~             ",
"                !!!!!!!!~!!!///(~!!^^             ",
"                !!!!!!!!!~!!!~///((!!             ",
"             ( !!!!!!!!!!!!!!!/((/!               ",
"             ((!!!!!!!!!!!!!!!///(                ",
"             ((~!!!!!!!!!!!!!((///                ",
"             !!~~((!!!!!!!!!!((///                ",
"             ~~~!((((~~!!!!!!((//                 ",
"           ..X~!((o)~O~(!!!(((//!                 ",
"           ..+!(@@#))~$%(!(((/~)!                 ",
"           .&*~~==-!^!;:((((>~~!X..               ",
"           .+,!!!<123456(((78)~!9X..              ",
"           X0q(~(wertyuu!((ip)~@q9X.              ",
"           .&*a8ssdfghjk!(lzx~!c8o0.              ",
"           ..+vabbnmiMNB~(l6V~(!(C9X              ",
"           ..X&Z>>A8SDFG~!4r::~~~q0.              ",
"             ..X&&Z>HbJK~(!(FFLPIv&.              ",
"               ...X&9UYTc~~~RREWQ+X.              ",
"                  ...&+*@EE@II>Z&X..              ",
"                     ..XvUUv99&X..                ",
"                       .X&&X....                  ",
"                                                  ",
"                                                  ",
"                                                  ",
"                                                  ",
"                                                  ",
"                                                  ",
"                                                  ",
"                                                  ",
"                                                  ",
"                                                  ",
"                                                  ",
"                                                  ",
"                                                  "
};
