/* XPM */
static char *result[] = {
/* columns rows colors chars-per-pixel */
"32 32 13 1 ",
"  c #151D28",
". c #172038",
"X c #202E37",
"o c #253A5E",
"O c #394A50",
"+ c #577277",
"@ c #3C5E8B",
"# c #4F8FBA",
"$ c #73BED3",
"% c #819796",
"& c #A8B5B2",
"* c #A4DDDB",
"= c #4F8FBA",
/* pixels */
"================================",
"================================",
"================================",
"================================",
"===============+++==============",
"==============+&&&&++===========",
"=============+&&&%%&&===========",
"=============+&%%%%%%+==========",
"=======&%+===+%%%%%%%%+=========",
"=======&%%+=O%%%%%%%%%++========",
"======&%%%+OO%%%%%%%%%%++=======",
"======&%%%%+O+%%%%%%%%%++=======",
"======&%%%%+O++%%%%%%%%%+O======",
"=====O&%%%%%++++%%%%%%%++OO=====",
"====O&%%%%%%+O++%%%%%%+++OO=====",
"====O&%%%%%%%+OO++%%+++++OOX====",
"====O+%%%%%%%+OOO++++++OOOOX====",
"====O++%%%%%%%+OOO+++++OOOXX====",
"==.$O++%%%%%%%%%+OOOOOOOOXXX$.==",
"....$O++%%%%%%%%%%%OOOOOOXX$....",
"....$**+++%&+++%%%%+OOOOO$$$@ ..",
"....o#$$*+++++++%%+++OO$$$$@@   ",
"....@@#$$*$+++$++++++$$$@@@@ o  ",
"...oo@@@@$$$$*$$**$*$@@@@@ooo   ",
"...ooo@@@@@$$$o$$$$@@@@oooo.    ",
"==..o o@@@@#@oooooo@@@.....o  ==",
"==== . oo@@@###ooo@@o..oo    ===",
"======.   oooo@@@ooo.ooo  ======",
"========.. .oo oo...oo  ========",
"==========o o.... ooo ==========",
"============  oo    ============",
"==============    =============="
};
