/* XPM */
static char *bddd950bfcf849afd7d3b48898af9fb3PZBLnyskgKOMa2iA[] = {
/* columns rows colors chars-per-pixel */
"32 32 8 1 ",
"  c None",
". c #151D28",
"X c #172038",
"o c #202E37",
"O c #394A50",
"+ c #577277",
"@ c #819796",
"# c #A8B5B2",
/* pixels */
"                ##@@++          ",
"               ###@@@+          ",
"             o+##@@@@+          ",
"          #+ +##@@@@@++         ",
"         #@++O#@@@@@@@++        ",
"        @#@++O##@@@@@@++        ",
"        ##@+++###@@@@@@+        ",
"        ##@++####@@@@@@+        ",
"       +#@@+O####@@@@@@@        ",
"       ##@@OO####@@@@@@o        ",
"      +##@@@O+###@@@@@oOX       ",
"      O##@@@O@++#@@@@+OOX       ",
"      ##@@@@o@++++++++OXoo      ",
"     +##@@@@@o++++++++XooOX     ",
"    +###@@@@@oO+++++++ooOOX     ",
"    +##@@@@@@+Oo++++oXoOOOOX    ",
"    O+#@@@@@@@+Xo++oXoO+OOOX    ",
"    O++++@@++@+oXXXXoOO+OOOX    ",
"    OO+++++++oOO++OOOO++OOOX    ",
"    oO+++++oOOoo+++OO+++OOXX    ",
"    XoO+oOOO+++O+++++++++OX.    ",
"     XOOOOO++++O+++++++++X.     ",
"    OOo.OO++++OOO+++++++oo.     ",
"    @@Oo.OO++OO.OOOO++oooOo.    ",
"    ++@OooOOOO.o.OOOoooOOOOo    ",
"    +++@OOOOO.ooo..ooOOOOOOo    ",
"     ++++OO@@@@+ooooOOOOOOo     ",
"      O+OO@+++++O.oOOOOOOo      ",
"        O++++++.o.oOOOOo        ",
"         O++++... .oOO          ",
"          O....                 ",
"                                "
};
